<svg version="1.2" xmlns="http://www.w3.org/2000/svg" viewBox="0 0 417 417" width="417" height="417" name="Xivo" placeholder="Xivo by @CodxVoid License -  https://creativecommons.org/licenses/by-nc-sa/4.0  Copyright 2025 CodxVoid" aria-label="Xivo CodxRocket Logo">
	<title>Xivo by CodxVoid</title>
	<style>
		.s0 { fill: #4A4A4A } 
	</style>
	<g id="Background">
		<path id="Path 2" class="s0" d="m347.6 73.5c-1.4 0.7-11.6 9.1-22.7 18.5-11.1 9.5-26.9 22.6-35 29.2-8.2 6.6-21.7 16.9-30.1 23-8.4 6.3-23.1 16.4-32.6 22.7-9.4 6.2-24.1 15.3-32.5 20.1-8.4 4.8-16 9.1-16.8 9.6-0.8 0.5-6.1 3.2-11.8 5.9-5.7 2.8-13.9 6.5-18.3 8.3-4.3 1.7-11.9 4.4-16.7 5.7-4.9 1.4-11.8 3.1-15.3 3.8-3.7 0.7-10.7 1-16.3 0.7-8-0.3-11-1-15.8-3.2-3.3-1.5-7.6-4.3-9.6-6.3-2-2-4.5-5.3-5.4-7.4-1-2.1-2-3.6-2.3-3.6-0.3 0-0.5 6.1-0.4 13.6 0.1 7.4 0.2 13.7 0.3 14 0.1 0.3 0.4 2.9 0.6 5.9 0.2 3 2 11 4 17.8 1.9 6.8 5.4 16.2 7.8 21.2 2.2 4.9 6.4 12.4 9.1 16.7 2.8 4.4 5.8 8.2 6.7 8.6 0.8 0.5 1.5 1.5 1.5 2.3 0 0.8 1.1 2.2 2.5 3 1.4 0.7 2.5 1.9 2.5 2.4 0 0.5 2.8 3.9 6.4 7.4 3.5 3.6 6.8 6.4 7.4 6.4 0.6 0 1.4 0.8 1.8 1.7 0.4 1 3.3 3.6 6.2 5.6 2.9 2.2 9.3 6.3 14.2 9.2 4.8 3 13.3 7 18.7 9.2 5.4 2.1 13.6 4.7 18.3 5.8 4.6 1.1 8.9 1.7 9.6 1.3 0.8-0.4 1.8 0 2.3 0.8 0.7 1.3 4.1 1.5 21.8 1.4 15.7-0.1 22.8-0.6 27.9-1.8 3.9-0.9 8-1.9 9.4-2.2 1.4-0.3 5.8-1.6 9.9-2.9 4-1.3 8.4-3.1 9.8-4l2.5-1.7c-10.8-2.6-16.1-4.5-18.8-5.9-2.7-1.3-7.5-4.4-10.8-6.9-3.3-2.4-8.9-7.7-12.4-11.6-3.6-4.1-8.3-10.2-10.4-13.7-2.2-3.6-5.1-10.2-6.7-14.8-2-6.1-3-11.1-3.4-17.8-0.4-7.6 0-10.9 1.7-17.3 1.2-4.3 3.4-9.8 4.8-12.3 1.3-2.5 3.6-6.4 4.9-8.9 1.4-2.4 4.5-7.3 7-10.8 2.5-3.6 8.1-11.1 12.4-16.8 4.4-5.7 13.2-16.8 19.8-24.7 6.6-7.8 19.4-22.7 28.7-33 9.2-10.4 26.1-29 37.4-41.4 11.4-12.5 22.3-24.5 24.3-26.7 2-2.2 3.8-4.7 4.1-5.7 0.3-0.9 0.5-1.7 0.4-1.7 0 0-1.2 0.6-2.6 1.3zm981.8 3.7c-2.7 2.6-5.3 4.9-5.8 4.9-0.4 0-3.3 2.4-6.3 5.2-2.9 2.9-5.9 5.4-6.6 5.6-0.7 0.3-4 3.1-7.4 6.2-3.4 3.1-9.3 8-13.1 11.1-3.7 3.1-11.8 9.4-17.8 14-6 4.6-12.1 9.9-13.6 11.6-1.5 1.6-2.4 2.3-1.9 1.5 0.4-0.8-4.4 2.3-10.6 6.8-6.2 4.6-12.8 9.7-14.5 11.4-1.8 1.7-3.7 3-4.4 3.1-0.7 0-4.9 2.5-9.2 5.4-4.4 2.8-8.4 5.7-8.9 6.4-0.6 0.6-2.8 2-4.9 3.1-2.2 1.1-11.3 6.4-20.2 11.8-9 5.4-21.8 12.5-28.7 15.9-6.8 3.3-15.8 7.5-20.2 9.2-4.3 1.7-11.9 4.4-16.7 5.9-5 1.4-12.1 3.2-15.8 3.9-4.1 0.7-11 1.1-16.8 0.8-8.2-0.4-11-1-16.2-3.4-3.7-1.6-7.7-4.4-9.8-6.9-2-2.1-4.1-4.8-4.6-5.8-0.7-1.3-1.4-1.6-2.4-0.9-1.1 0.7-1.2 3.5-0.8 15.2 0.3 7.9 1.2 17.4 2 21.2 0.9 3.9 2.8 10.7 4.2 15.3 1.5 4.6 4.7 12.8 7.4 18.3 2.5 5.4 7.4 13.8 10.6 18.7 3.3 4.9 9.7 12.8 14.1 17.7 4.6 4.8 12.9 12.1 18.4 16.2 5.5 4.2 14.4 9.8 19.7 12.7 5.3 2.7 14.3 6.7 20 8.6 5.8 1.8 14.1 4.2 18.8 5.2 6.5 1.4 12.7 1.8 28.1 1.8 17.8-0.1 20.8-0.3 30.6-2.7 5.9-1.4 14.1-3.9 18.1-5.3 4.1-1.6 7.5-3.4 7.7-3.9 0.2-0.5-2.2-1.6-5.3-2.4-3.2-0.7-8.6-2.8-12.1-4.6-3.6-1.8-9.4-5.7-13.2-8.7-3.6-3-9.3-8.9-12.6-13.2-3.3-4.1-7.1-9.4-8.4-11.5-1.2-2.2-3.6-7.7-5.4-12.4-2.4-6.6-3.1-10.5-3.5-18.2-0.4-7.3-0.1-11.6 1-16.3 0.9-3.5 3-9.3 4.8-12.8 1.7-3.6 4.8-9.3 7.1-12.7 2.2-3.6 3.9-6.7 3.7-7.2-0.1-0.4 0.2-0.8 0.8-0.8 0.5 0 3-2.9 5.4-6.4 2.5-3.6 4.5-6.9 4.5-7.4 0-0.5 0.6-1.3 1.4-1.8 0.8-0.4 6.5-7.1 12.8-15 6.3-7.9 13.6-16.7 16.2-19.5 2.5-2.8 4.8-5.8 5-6.5 0.2-0.5 1.8-2.5 3.5-4.1 1.8-1.6 7.3-7.6 12.2-13.3 4.9-5.7 10.4-12 12.4-13.8 1.9-1.9 3.5-4 3.5-4.5 0-0.5 2.9-3.6 6.5-6.9 3.5-3.2 6.4-6.2 6.4-6.7 0-0.4 2.4-3 5.1-5.9 2.9-2.9 7.9-8.3 11.2-11.9 3.2-3.8 7.8-8.6 10-10.9 2.4-2.2 4.3-4.5 4.3-5 0-0.6 1.7-2.7 3.9-4.8 2.2-1.9 3.8-4.1 3.5-4.6-0.3-0.6-0.9-1-1.4-1-0.5 0-3.1 2.2-5.8 5z"/>
		<path id="Path 4" class="s0" d="m188.8 26.9c-4.1 0.5-11.2 1.6-15.8 2.5-4.6 0.9-13.7 3.3-20.2 5.5-6.5 2.1-17 6.3-23.2 9.3-6.2 3-15.1 7.9-19.7 10.9-4.7 3-12.5 8.7-17.3 12.7-4.8 3.9-12.4 10.8-16.7 15.4-4.2 4.5-9.6 10.7-11.9 13.7-2.3 2.9-6.6 9.1-9.7 13.8-2.9 4.6-7.9 13.5-10.9 19.7-3 6.2-7 16-8.9 21.7-1.9 5.7-4.3 14.8-5.4 20.2-1.1 5.5-2.5 14.5-3.1 20.3-0.5 5.7-1 14-1 18.5 0 4.4 0.5 12.4 1.1 17.8 0.5 5.2 1.9 14 3.1 19.4 1 5.4 3.4 14.3 5.2 19.7 1.8 5.5 5.4 14.5 8.1 20.3 2.6 5.7 7.1 13.9 9.7 18.2 2.7 4.3 7.8 11.6 11.3 16.3 3.5 4.6 10.8 12.8 16.3 18.2 5.4 5.6 14.5 13.3 20.2 17.5 5.7 4 14.4 9.8 19.2 12.5 4.9 2.8 12.3 6.4 16.3 8.2 4 1.7 11 4.3 15.3 5.7 4.3 1.6 13 4 19.2 5.3 6.2 1.3 16.9 3 23.7 3.7 6.9 0.6 17.2 0.9 23.2 0.5 5.9-0.3 14.4-1.1 18.7-1.7 4.4-0.5 12.4-2 17.8-3.4 5.4-1.4 14.8-4.3 20.7-6.4 5.9-2.3 15.1-6.3 20.2-9 5.2-2.7 13-7.2 17.3-10.2 4.3-2.8 12.1-8.8 17.3-13.1 5.1-4.2 12.5-11.3 16.3-15.6 3.8-4.2 9-10.4 11.5-13.7 2.4-3.3 6.8-9.7 9.7-14.3 2.9-4.6 7.3-12.8 9.9-18.3 2.7-5.4 6.3-14.5 8.2-20.2 1.9-5.7 4.2-14.8 5.4-20.2 1.1-5.4 2.5-14.5 3.1-20.2 0.5-5.7 1-14 1-18.5 0-4.5-0.5-12.5-1.1-17.7-0.5-5.4-1.9-14.1-3-19.6-1.1-5.4-3.5-14.5-5.5-20.2-1.9-5.7-5.4-14.6-7.8-19.7-2.5-5.1-6.5-12.8-9.1-17.1-2.5-4.1-4.9-7.5-5.3-7.4-0.4 0.2-6.3 8.1-13.2 17.6-7.4 10.2-12.2 17.8-12 18.7 0.3 0.8 2.4 5.6 4.6 10.7 2.3 4.9 5.1 13.2 6.4 18.2 1.3 5 3 12.9 3.6 17.5 0.8 5.5 1 14 0.6 25.1-0.3 9.6-1.2 19.8-2.1 23.7-0.9 3.9-3.1 11.4-4.9 16.8-1.8 5.4-4.9 13.2-7 17.3-2 4-5.7 10.4-8.2 14.3-2.3 3.8-7.4 10.4-11 14.8-3.6 4.3-9.9 10.8-13.9 14.5-4.1 3.6-7.9 6.6-8.6 6.7-0.6 0-1.2 0.5-1.2 1 0 0.4-3.6 3.2-8.2 6.1-4.4 2.7-10.5 6.1-13.5 7.5-2.9 1.2-7 3.1-8.9 4.1-1.8 1-6.8 2.8-10.8 4-4.1 1.2-8 2.7-8.8 3.3-1.1 0.8-1.3 0.8-0.8-0.1 0.5-1 0.2-1.1-1.1-0.4-0.9 0.5-3.2 1.2-5.1 1.6-1.9 0.3-5.9 0.9-8.9 1.4-2.9 0.5-13.5 0.8-23.5 0.7-14.9-0.1-18.1-0.4-18.8-1.6-0.6-0.9-1.5-1.2-2.5-0.7-0.9 0.4-5.6-0.4-10.7-1.7-4.9-1.3-13.7-4.2-19.5-6.4-5.7-2.3-11.9-5.2-13.8-6.5-1.8-1.4-4-2.5-4.7-2.5-0.6 0-1.2-0.5-1.2-1 0-0.4-0.4-0.9-1-0.9-0.6 0-2.3-1-4.1-2.2-1.7-1.3-4.1-3-5.1-3.8-1.1-0.7-3.5-2.9-5.3-4.6-1.7-1.8-3.4-3.3-3.7-3.3-0.3 0-3.4-2.8-6.9-6.4-3.6-3.5-6.4-6.9-6.4-7.4 0-0.5-1.1-1.6-2.5-2.4-1.4-0.8-2.5-2.2-2.5-3 0-0.8-0.7-1.8-1.5-2.2-0.9-0.5-3.9-4.3-6.7-8.6-2.8-4.4-5.8-9.3-6.7-10.9-0.9-1.6-3.1-6.9-5.1-11.8-2-5-4.9-14.2-6.6-20.7-2-7.2-3-13-2.6-14.5 0.3-1.6 0.3-3-0.2-3.2-0.4-0.2-0.6-8.6-0.5-18.6 0.1-9.8 0.5-19.8 0.9-22 0.3-2.1 0.8-4.6 0.9-5.4 0.2-0.8 0.8-3.4 1.5-5.9 0.7-2.5 1.4-5.1 1.5-5.9 0.2-0.8 1.7-4.8 3.2-8.9 1.6-4 4.6-10.7 6.6-14.8 2.1-4 6.5-11.3 9.7-16.3 3.6-5.2 10.8-13.6 17.5-20.2 6.5-6.5 14.9-13.7 19.7-17 4.6-3 12.4-7.5 17.3-9.9 4.8-2.5 12.9-5.8 17.7-7.5 4.9-1.6 12.5-3.7 16.8-4.6 4.3-0.8 13-1.9 19.2-2.2 6.2-0.4 15.8-0.4 21.2 0 5.5 0.4 13.5 1.4 17.8 2.2 4.3 0.9 11.8 3 16.8 4.7 4.9 1.7 11.8 4.5 15.5 6.3 3.7 1.9 7.3 3 7.8 2.7 0.7-0.4 7.9-5.6 16.1-11.6 8.1-5.9 15.6-11.4 16.6-12.3 1.8-1.5 1.5-1.9-5.4-6.2-4-2.6-12.4-7-18.6-10-6.2-3-15.6-6.7-20.7-8.4-5.1-1.7-12.4-3.7-16.3-4.5-3.8-0.9-11.9-2.3-18-3.1-6-0.8-16.7-1.4-23.6-1.4-7 0.1-16 0.5-20 1z"/>

      </g>
</svg>